<svg width="42px" height="42px" viewBox="0 0 42 42" version="1.1" xmlns="http://www.w3.org/2000/svg" xmlns:xlink="http://www.w3.org/1999/xlink">
    <!-- Generator: Sketch 46.2 (44496) - http://www.bohemiancoding.com/sketch -->
    <desc>Created with Sketch.</desc>
    <defs></defs>
    <g id="Living-menu" stroke="none" stroke-width="1" fill="none" fill-rule="evenodd">
        <g id="Tablet-Portrait" transform="translate(-98.000000, -386.000000)">
            <g id="Group-7" transform="translate(98.000000, 110.000000)">
                <g id="Group-4">
                    <g id="Group-3">
                        <g id="Group">
                            <g id="Group-11" transform="translate(0.000000, 276.000000)">
                                <g id="Group-17">
                                    <g id="Group-10" fill="#F4F4F4">
                                        <circle id="Oval" cx="21" cy="21" r="21"></circle>
                                    </g>
                                    <g id="Page-1" transform="translate(8.000000, 4.000000)">
                                        <path d="M14.9970008,32 L11.0034728,32 C10.4494081,32 10,31.5997467 10,31.1057631 L10,30 L16,30 L16,31.1057631 C16,31.5997467 15.5510655,32 14.9970008,32" id="Fill-1" fill="#FFFFFF"></path>
                                        <path d="M14.9970008,32 L11.0034728,32 C10.4494081,32 10,31.5997467 10,31.1057631 L10,30 L16,30 L16,31.1057631 C16,31.5997467 15.5510655,32 14.9970008,32 Z" id="Stroke-3" stroke="#676767" stroke-width="1.16571429" stroke-linecap="round" stroke-linejoin="round"></path>
                                        <g id="Group-8" transform="translate(9.000000, 26.000000)">
                                            <path d="M1.37213194,1.95857778 L1.02275694,1.95857778 C0.521263889,1.95857778 0.114111111,1.53191111 0.114111111,1.00524444 C0.114111111,0.478577778 0.521263889,0.0519111111 1.02275694,0.0519111111 L7.85317361,0.0519111111 C8.35511806,0.0519111111 8.76227083,0.478577778 8.76227083,1.00524444 C8.76227083,1.53191111 8.35511806,1.95857778 7.85317361,1.95857778 L5.67161111,1.95857778" id="Fill-5" fill="#FFFFFF"></path>
                                            <path d="M1.37213194,1.95857778 L1.02275694,1.95857778 C0.521263889,1.95857778 0.114111111,1.53191111 0.114111111,1.00524444 C0.114111111,0.478577778 0.521263889,0.0519111111 1.02275694,0.0519111111 L7.85317361,0.0519111111 C8.35511806,0.0519111111 8.76227083,0.478577778 8.76227083,1.00524444 C8.76227083,1.53191111 8.35511806,1.95857778 7.85317361,1.95857778 L5.67161111,1.95857778" id="Stroke-7" stroke="#676767" stroke-width="1.16571429" stroke-linecap="round" stroke-linejoin="round"></path>
                                        </g>
                                        <g id="Group-12" transform="translate(9.000000, 28.000000)">
                                            <path d="M4.80643403,0.1808 L7.85330903,0.1808 C8.35525347,0.1808 8.76240625,0.607466667 8.76240625,1.13413333 C8.76240625,1.6608 8.35525347,2.08746667 7.85330903,2.08746667 L1.02289236,2.08746667 C0.520947917,2.08746667 0.113795139,1.6608 0.113795139,1.13413333 C0.113795139,0.607466667 0.520947917,0.1808 1.02289236,0.1808 L1.61737153,0.1808" id="Fill-9" fill="#FFFFFF"></path>
                                            <path d="M4.80643403,0.1808 L7.85330903,0.1808 C8.35525347,0.1808 8.76240625,0.607466667 8.76240625,1.13413333 C8.76240625,1.6608 8.35525347,2.08746667 7.85330903,2.08746667 L1.02289236,2.08746667 C0.520947917,2.08746667 0.113795139,1.6608 0.113795139,1.13413333 C0.113795139,0.607466667 0.520947917,0.1808 1.02289236,0.1808 L1.61737153,0.1808" id="Stroke-11" stroke="#676767" stroke-width="1.16571429" stroke-linecap="round" stroke-linejoin="round"></path>
                                        </g>
                                        <path d="M20,6 L22,4" id="Stroke-17" stroke="#676767" stroke-width="1.16571429" stroke-linecap="round" stroke-linejoin="round"></path>
                                        <path d="M22,23 L20,21" id="Stroke-19" stroke="#676767" stroke-width="1.16571429" stroke-linecap="round" stroke-linejoin="round"></path>
                                        <path d="M6,6 L4,4" id="Stroke-23" stroke="#676767" stroke-width="1.16571429" stroke-linecap="round" stroke-linejoin="round"></path>
                                        <path d="M4,23 L6,21" id="Stroke-25" stroke="#676767" stroke-width="1.16571429" stroke-linecap="round" stroke-linejoin="round"></path>
                                        <path d="M15,11.0046577 C14.2817087,9.31366372 10.8076728,9.75573913 11.707359,12.34288 C12.4147181,14.3768711 12.8046361,15.7417512 11,17 L15,17" id="Stroke-27" stroke="#676767" stroke-width="1.16571429" stroke-linecap="round" stroke-linejoin="round"></path>
                                        <g id="Group-32" transform="translate(10.000000, 13.000000)"></g>
                                        <path d="M11.5,28 C11.7760784,28 12,28.2239216 12,28.5 C12,28.7760784 11.7760784,29 11.5,29 C11.2239216,29 11,28.7760784 11,28.5 C11,28.2239216 11.2239216,28 11.5,28" id="Fill-33" fill="#676767"></path>
                                        <path d="M13,6 C6.46930058,6 2.40488147,12.6752673 6.89998545,19.1161306 C8.13380278,20.883782 8.32657263,22.3754838 8.32657263,23.4442962 C8.32657263,24.513546 8.83806734,25.5303173 9.43037189,26 L13,26 L16.5696281,26 C17.1619327,25.5303173 17.6734274,24.513546 17.6734274,23.4442962 C17.6734274,22.3754838 17.8661972,20.883782 19.1000146,19.1161306 C23.5951185,12.6752673 19.5306994,6 13,6 Z" id="Stroke-35" stroke="#676767" stroke-width="1.16571429" stroke-linecap="round" stroke-linejoin="round"></path>
                                    </g>
                                </g>
                            </g>
                        </g>
                    </g>
                </g>
            </g>
        </g>
    </g>
</svg>
