<svg width="42px" height="42px" viewBox="0 0 42 42" version="1.1" xmlns="http://www.w3.org/2000/svg" xmlns:xlink="http://www.w3.org/1999/xlink">
    <!-- Generator: Sketch 46.2 (44496) - http://www.bohemiancoding.com/sketch -->
    <desc>Created with Sketch.</desc>
    <defs></defs>
    <g id="Living-menu" stroke="none" stroke-width="1" fill="none" fill-rule="evenodd">
        <g id="Tablet-Portrait" transform="translate(-666.000000, -470.000000)">
            <g id="Group-7" transform="translate(98.000000, 110.000000)">
                <g id="Group-4">
                    <g id="Group-3">
                        <g id="Group">
                            <g id="Group-15" transform="translate(568.000000, 360.000000)">
                                <circle id="Oval" fill="#F4F4F4" cx="21" cy="21" r="21"></circle>
                                <g id="Page-1" transform="translate(5.000000, 4.000000)" fill="#676767">
                                    <path d="M15.9007675,14.9371328 C7.11920729,14.9371328 0,17.9168403 0,21.5928087 C0,25.2682952 7.11920729,28.2480026 15.9007675,28.2480026 C24.6823278,28.2480026 31.8015351,25.2682952 31.8015351,21.5928087 C31.8015351,17.9168403 24.6823278,14.9371328 15.9007675,14.9371328 M15.9007675,15.9008157 C24.7035288,15.9008157 30.8378522,18.9002787 30.8378522,21.5928087 C30.8378522,24.2848568 24.7035288,27.2843198 15.9007675,27.2843198 C7.09800626,27.2843198 0.963682881,24.2848568 0.963682881,21.5928087 C0.963682881,18.9002787 7.09800626,15.9008157 15.9007675,15.9008157" id="Fill-1"></path>
                                    <path d="M26.1387417,20.3616074 C26.062129,20.3616074 25.9845525,20.3432974 25.9122763,20.3047501 C23.9878015,19.2789097 21.2326322,18.5874672 18.1541472,18.3590744 C17.8886526,18.3393189 17.6896521,18.108035 17.7094076,17.8425404 C17.7286812,17.5775276 17.9575559,17.3790089 18.2254598,17.3982826 C21.4345238,17.6363122 24.3255724,18.3667839 26.3656891,19.4547818 C26.6008277,19.5795788 26.6894865,19.8715747 26.5642077,20.1067133 C26.4779581,20.2690939 26.3107591,20.3616074 26.1387417,20.3616074" id="Fill-3"></path>
                                    <path d="M15.9007675,31.6208927 C7.13318069,31.6208927 0,28.3323249 0,24.2906389 L0,21.3995902 C0,21.1331319 0.215864965,20.9177488 0.481841441,20.9177488 C0.747817916,20.9177488 0.963682881,21.1331319 0.963682881,21.3995902 L0.963682881,24.2906389 C0.963682881,27.3016661 7.09800626,30.6572099 15.9007675,30.6572099 C23.9976311,30.6572099 30.8378522,27.8302461 30.8378522,24.4833755 L30.8378522,21.8033734 C30.8378522,21.5373969 31.0537172,21.3215319 31.3196936,21.3215319 C31.5856701,21.3215319 31.8015351,21.5373969 31.8015351,21.8033734 L31.8015351,24.4833755 C31.8015351,28.4190564 24.6683544,31.6208927 15.9007675,31.6208927" id="Fill-5"></path>
                                    <path d="M11.4889309,20.5987698 C9.87476212,20.5987698 9.00455648,21.154333 9.00455648,21.3817621 C9.00455648,21.6091913 9.87476212,22.1647545 11.4889309,22.1647545 C13.1030998,22.1647545 13.9733054,21.6091913 13.9733054,21.3817621 C13.9733054,21.154333 13.1030998,20.5987698 11.4889309,20.5987698 M11.4889309,23.1284373 C9.77550278,23.1284373 8.04087359,22.5285447 8.04087359,21.3817621 C8.04087359,20.2349795 9.77550278,19.6350869 11.4889309,19.6350869 C13.2023591,19.6350869 14.9369883,20.2349795 14.9369883,21.3817621 C14.9369883,22.5285447 13.2023591,23.1284373 11.4889309,23.1284373" id="Fill-7"></path>
                                    <path d="M11.0823531,1.26160544 L11.0823531,6.88903163 L17.5775758,4.50921675 L11.0823531,1.26160544 Z M10.6005117,22.1648508 C10.3345352,22.1648508 10.1186703,21.9489859 10.1186703,21.6830094 L10.1186703,0.481985993 C10.1186703,0.314787013 10.2054017,0.159634069 10.3470631,0.0719389271 C10.4896882,-0.0157562151 10.666524,-0.0234656782 10.8158948,0.0507379037 L19.0071993,4.14639015 C19.1792167,4.23263977 19.2837763,4.41284847 19.2731758,4.60462136 C19.2620934,4.79639425 19.1382602,4.96407507 18.9575696,5.03008735 L11.0823531,7.91583574 L11.0823531,21.6830094 C11.0823531,21.9489859 10.8664882,22.1648508 10.6005117,22.1648508 L10.6005117,22.1648508 Z" id="Fill-9"></path>
                                    <path d="M28.3010052,20.6550489 C28.6026379,20.9566816 28.6026379,21.4457507 28.3010052,21.7469016 C27.9993725,22.0485343 27.5103034,22.0485343 27.2091525,21.7469016 C26.9075198,21.4457507 26.9075198,20.9566816 27.2091525,20.6550489 C27.5103034,20.3534161 27.9993725,20.3534161 28.3010052,20.6550489" id="Fill-11"></path>
                                </g>
                            </g>
                        </g>
                    </g>
                </g>
            </g>
        </g>
    </g>
</svg>
