<svg width="42px" height="42px" viewBox="0 0 42 42" version="1.1" xmlns="http://www.w3.org/2000/svg" xmlns:xlink="http://www.w3.org/1999/xlink">
    <!-- Generator: Sketch 46.2 (44496) - http://www.bohemiancoding.com/sketch -->
    <desc>Created with Sketch.</desc>
    <defs></defs>
    <g id="Living-menu" stroke="none" stroke-width="1" fill="none" fill-rule="evenodd">
        <g id="Tablet-Portrait" transform="translate(-570.000000, -470.000000)">
            <circle id="Oval" fill="#F4F4F4" cx="591" cy="491" r="21"></circle>
            <g id="Page-1" transform="translate(575.000000, 477.000000)" fill="#67565E">
                <path d="M25.4716973,20.7653375 C24.7407565,20.7653375 24.1462058,21.3622529 24.1462058,22.0957073 C24.1462058,23.8313657 26.41271,25.6988414 27.0864296,26.215486 C28.4761968,25.162916 30.0250857,23.5000521 30.0250857,22.0957073 C30.0250857,21.3622529 29.430143,20.7653375 28.6988104,20.7653375 C28.2567186,20.7653375 27.8287362,21.0089041 27.5818232,21.4008143 C27.3666562,21.7423585 26.8038514,21.7431455 26.5882925,21.4008143 C26.3413796,21.0089041 25.9133971,20.7653375 25.4716973,20.7653375 L25.4716973,20.7653375 Z M27.2435917,26.3331378 L27.2475109,26.3331378 L27.2435917,26.3331378 Z M27.08447,27.4632242 C26.8936023,27.4632242 26.7097894,27.4030211 26.5526273,27.2885172 C25.7119475,26.6750755 22.9704298,24.4888777 22.9704298,22.0957073 C22.9704298,20.7114301 24.092512,19.5848851 25.4716973,19.5848851 C26.0619368,19.5848851 26.6361074,19.8083841 27.0852538,20.1939985 C27.5340083,19.8083841 28.1085709,19.5848851 28.6988104,19.5848851 C30.0783875,19.5848851 31.2008617,20.7114301 31.2008617,22.0957073 C31.2008617,24.4849429 28.4620875,26.6719276 27.6225834,27.2853693 C27.4630698,27.4018406 27.2769053,27.4632242 27.08447,27.4632242 L27.08447,27.4632242 Z" id="Fill-1"></path>
                <g id="Group-34" transform="translate(0.000000, 0.141654)">
                    <path d="M7.96964474,16.5125611 C5.70862753,16.2894556 3.61692206,15.0857877 2.23107411,13.2104424 C0.84091498,11.3288013 0.298882254,8.96199432 0.743325574,6.71638045 C1.1909043,4.45738811 2.60732242,2.47344118 4.62926518,1.27410158 C6.65355949,0.0731880463 9.0709549,-0.216022782 11.2614256,0.481624563 C13.8477408,1.30518683 15.9178904,3.44574044 16.6637242,6.06791862 C16.7472043,6.36224474 16.5775007,6.66916235 16.2843405,6.75297447 C15.9900046,6.83757355 15.6854786,6.66640796 15.6019985,6.37208184 C14.9564975,4.1032524 13.1653988,2.25112265 10.9275052,1.53812943 C9.03646547,0.93688569 6.94554386,1.18753507 5.19089417,2.22830057 C3.43898797,3.26788562 2.21265362,4.98229593 1.82660717,6.93240323 C1.44252036,8.87188645 1.91322267,10.9191843 3.11800112,12.5497825 C4.3184684,14.1744785 6.12641993,15.2168179 8.0774242,15.4092316 C8.38116633,15.4395299 8.60299606,15.7106405 8.57281781,16.0151972 C8.54499112,16.3016536 8.30474089,16.5153155 8.02412236,16.5153155 C8.00609379,16.5153155 7.98806523,16.5145285 7.96964474,16.5125611 Z" id="Fill-6"></path>
                    <path d="M8.78120451,13.7094589 C7.37027334,13.7094589 6.12591043,12.8512701 5.61092055,11.5232612 C5.49177525,11.2159501 5.64345035,10.8700775 5.94954403,10.7500649 C6.25563771,10.6304457 6.60014007,10.7831175 6.71928537,11.0900351 C7.05477345,11.9560937 7.86449117,12.5156281 8.78120451,12.5156281 C9.69830977,12.5156281 10.5076356,11.9560937 10.8431237,11.0904286 C10.961877,10.782724 11.3059875,10.6300522 11.612865,10.7500649 C11.9189587,10.869684 12.0706338,11.2159501 11.9514885,11.5228677 C11.4368905,12.8512701 10.1925276,13.7094589 8.78120451,13.7094589" id="Fill-8"></path>
                    <path d="M3.62742566,7.85004754 L0.85377013,7.85004754 C0.525336707,7.85004754 0.259219411,7.58287183 0.259219411,7.25313213 C0.259219411,6.92339244 0.525336707,6.65621672 0.85377013,6.65621672 L3.62742566,6.65621672 C3.95585909,6.65621672 4.22197638,6.92339244 4.22197638,7.25313213 C4.22197638,7.58287183 3.95585909,7.85004754 3.62742566,7.85004754" id="Fill-10"></path>
                    <path d="M15.1367832,7.85004754 L13.5389036,7.85004754 C13.2104702,7.85004754 12.9443529,7.58287183 12.9443529,7.25313213 C12.9443529,6.92339244 13.2104702,6.65621672 13.5389036,6.65621672 L15.1367832,6.65621672 C15.4652166,6.65621672 15.7313339,6.92339244 15.7313339,7.25313213 C15.7313339,7.58287183 15.4652166,7.85004754 15.1367832,7.85004754" id="Fill-12"></path>
                    <path d="M5.79010881,6.06477074 C5.13755314,6.06477074 4.60649432,6.59794172 4.60649432,7.25309278 C4.60649432,7.90824384 5.13755314,8.44141483 5.79010881,8.44141483 C6.44266447,8.44141483 6.97372329,7.90824384 6.97372329,7.25309278 C6.97372329,6.59794172 6.44266447,6.06477074 5.79010881,6.06477074 M5.79010881,9.63524565 C4.48186207,9.63524565 3.41739288,8.56654278 3.41739288,7.25309278 C3.41739288,5.93964279 4.48186207,4.87093992 5.79010881,4.87093992 C7.09835554,4.87093992 8.16282473,5.93964279 8.16282473,7.25309278 C8.16282473,8.56654278 7.09835554,9.63524565 5.79010881,9.63524565" id="Fill-14"></path>
                    <path d="M11.3972277,6.06477074 C10.744672,6.06477074 10.2136132,6.59794172 10.2136132,7.25309278 C10.2136132,7.90824384 10.744672,8.44141483 11.3972277,8.44141483 C12.0497833,8.44141483 12.5808422,7.90824384 12.5808422,7.25309278 C12.5808422,6.59794172 12.0497833,6.06477074 11.3972277,6.06477074 M11.3972277,9.63524565 C10.0889809,9.63524565 9.02451175,8.56654278 9.02451175,7.25309278 C9.02451175,5.93964279 10.0889809,4.87093992 11.3972277,4.87093992 C12.7054744,4.87093992 13.7699436,5.93964279 13.7699436,7.25309278 C13.7699436,8.56654278 12.7054744,9.63524565 11.3972277,9.63524565" id="Fill-16"></path>
                    <path d="M22.283855,18.4977278 C21.6681404,18.4977278 21.0512499,18.4269007 20.4461172,18.282492 C20.1302254,18.2069431 19.9350466,17.8890079 20.0099043,17.5714662 C20.085154,17.254318 20.4022215,17.0591499 20.7181134,17.1339119 C22.7345692,17.6163234 24.9101466,17.1374532 26.5350691,15.8543015 C26.7906044,15.6524442 27.1601899,15.6973013 27.3608557,15.9534595 C27.5615215,16.2100112 27.5172339,16.5806732 27.2620905,16.7825306 C25.8448886,17.9008124 24.0718184,18.4977278 22.283855,18.4977278" id="Fill-18"></path>
                    <path d="M22.3087423,15.8653584 C20.9134881,15.8653584 19.6832345,15.0170067 19.1745155,13.7039501 C19.0569379,13.4001804 19.2066533,13.0578492 19.5092197,12.939804 C19.811786,12.8221522 20.1527611,12.9720697 20.2703387,13.2758394 C20.6019075,14.1316674 21.402219,14.6849061 22.3087423,14.6849061 C23.2152656,14.6849061 24.0155771,14.1316674 24.3475378,13.2758394 C24.4651154,12.9716762 24.8056985,12.8217587 25.1086568,12.939804 C25.4112232,13.0582427 25.5609387,13.4001804 25.4433611,13.7039501 C24.9342501,15.0170067 23.7039965,15.8653584 22.3087423,15.8653584" id="Fill-20"></path>
                    <path d="M14.0235585,14.3300227 C13.9937722,14.3300227 13.9635939,14.3280553 13.9330237,14.32294 C13.6120369,14.273361 13.3921668,13.9719522 13.4419413,13.6496887 C13.5810748,12.7454622 13.75313,11.6456741 13.9600666,10.3554396 C14.3696285,7.80566253 15.5747989,5.60490585 17.3529641,4.15767126 C17.6049721,3.95227255 17.9753415,3.99201444 18.1795346,4.24502473 C18.3841197,4.49803502 18.3453191,4.86987751 18.0929191,5.07488274 C16.5397191,6.33875374 15.4846561,8.28059787 15.1209494,10.543525 C14.9144047,11.8306116 14.7423495,12.9276453 14.603608,13.8299044 C14.5589285,14.1214761 14.3084882,14.3300227 14.0235585,14.3300227" id="Fill-22"></path>
                    <path d="M31.1025668,17.4196994 L31.1025668,17.4196994 L27.0837645,17.4196994 C26.760818,17.4196994 26.49862,17.1580324 26.4958765,16.834195 L26.4480616,9.07114681 C26.4480616,8.47659231 25.9667773,7.99339381 25.3745782,7.99339381 L24.5268437,7.99339381 C24.2019376,7.99339381 23.9389557,7.72936596 23.9389557,7.40316763 L23.9389557,6.85307683 L23.1586324,7.78327329 C23.0469336,7.9166644 22.882325,7.99339381 22.709094,7.99339381 L19.2429064,7.99339381 C18.6510992,7.99339381 18.169423,8.47659231 18.169423,9.07114681 L18.169423,14.7259071 C18.169423,15.0521054 17.9064411,15.3161333 17.581535,15.3161333 C17.2570208,15.3161333 16.993647,15.0521054 16.993647,14.7259071 L16.993647,9.07114681 C16.993647,7.82576957 18.0028547,6.81294145 19.2429064,6.81294145 L22.4355301,6.81294145 L24.0769134,4.85575144 C24.2356432,4.66569861 24.4962735,4.59683888 24.7279014,4.68104449 C24.9599212,4.76603706 25.1143397,4.98756862 25.1143397,5.23585709 L25.1147317,6.81294145 L25.3745782,6.81294145 C26.6150218,6.81294145 27.6238376,7.82576957 27.6238376,9.07114681 L27.6238376,11.221144 L27.6665575,16.239247 L30.4237521,16.239247 C30.2861863,15.2964591 29.9985132,13.3731087 29.5438798,10.5435644 C28.8850533,6.43834457 26.0447705,3.6398855 22.4766823,3.57968243 L22.1784271,3.57968243 C21.559577,3.5903065 20.9450381,3.68513618 20.3606775,3.86181055 C20.0494888,3.95545977 19.7218392,3.7787854 19.628561,3.46714598 C19.5344989,3.15511307 19.7108653,2.82576686 20.0216621,2.73172416 C20.709491,2.52357106 21.4318094,2.41182157 22.1690209,2.39923007 L22.4864804,2.39923007 C26.6534305,2.46966373 29.951874,5.66711569 30.7047626,10.355479 C31.3729953,14.5153931 31.6818324,16.7259869 31.6845759,16.7476285 C31.7084834,16.9168267 31.657925,17.0879923 31.5462263,17.2166616 C31.4345276,17.3457244 31.2726624,17.4196994 31.1025668,17.4196994" id="Fill-24"></path>
                    <path d="M13.6618898,14.3582749 C9.65210178,14.3582749 6.38971536,17.6336367 6.38971536,21.6593727 C6.38971536,25.6855023 9.65210178,28.9604706 13.6618898,28.9604706 C17.6716778,28.9604706 20.9340642,25.6855023 20.9340642,21.6593727 C20.9340642,17.6336367 17.6716778,14.3582749 13.6618898,14.3582749 M13.6618898,30.0976397 C9.02737281,30.0976397 5.25705117,26.3123225 5.25705117,21.6593727 C5.25705117,17.006423 9.02737281,13.2211058 13.6618898,13.2211058 C18.2964068,13.2211058 22.0667284,17.006423 22.0667284,21.6593727 C22.0667284,26.3123225 18.2964068,30.0976397 13.6618898,30.0976397" id="Fill-26"></path>
                    <path d="M13.6618898,27.0752488 C12.2666356,27.0752488 11.036382,26.2268971 10.527271,24.9138405 C10.4096934,24.6100708 10.5594089,24.2677396 10.8619753,24.1496944 C11.1645416,24.0316491 11.5055166,24.1819601 11.6230942,24.4857298 C11.955055,25.3415578 12.7553665,25.8947965 13.6618898,25.8947965 C14.5684131,25.8947965 15.3687246,25.3415578 15.7002934,24.4857298 C15.817871,24.1819601 16.1584541,24.0316491 16.4614124,24.1496944 C16.7639787,24.2677396 16.9136942,24.6100708 16.7961166,24.9138405 C16.2873975,26.2268971 15.0571439,27.0752488 13.6618898,27.0752488" id="Fill-28"></path>
                    <path d="M19.323839,3.45148531 C19.5535073,3.682067 19.5535073,4.05587692 19.323839,4.28606513 C19.0941708,4.51664682 18.7218417,4.51664682 18.4925654,4.28606513 C18.2628972,4.05587692 18.2628972,3.682067 18.4925654,3.45148531 C18.7218417,3.22090361 19.0941708,3.22090361 19.323839,3.45148531" id="Fill-30"></path>
                    <path d="M9.17273791,7.85539893 L7.99813771,7.85539893 C7.67323161,7.85539893 7.41024972,7.59137108 7.41024972,7.26517275 C7.41024972,6.93897441 7.67323161,6.67494657 7.99813771,6.67494657 L9.17273791,6.67494657 C9.49764401,6.67494657 9.7606259,6.93897441 9.7606259,7.26517275 C9.7606259,7.59137108 9.49764401,7.85539893 9.17273791,7.85539893" id="Fill-32"></path>
                </g>
            </g>
        </g>
    </g>
</svg>
