<?xml version="1.0" encoding="utf-8"?>
<!-- Generator: Adobe Illustrator 22.0.1, SVG Export Plug-In . SVG Version: 6.00 Build 0)  -->
<svg version="1.1" id="Layer_1" xmlns="http://www.w3.org/2000/svg" xmlns:xlink="http://www.w3.org/1999/xlink" x="0px" y="0px"
	 viewBox="0 0 96 96" style="enable-background:new 0 0 96 96;" xml:space="preserve">
<style type="text/css">
	.st0{fill:none;}
	.st1{fill:#E10A0A;}
</style>
<g id="SME-homepage-modules_desktop" transform="translate(-1178.000000, -374.000000)">
	<g id="prod-icons-business" transform="translate(1178.000000, 351.000000)">
		<rect id="Rectangle-4" x="0" y="23" class="st0" width="96" height="96"/>
		<path class="st1" d="M75,77.9l3.9-3.1l-9.6-16.4l-2.6,1c-1.4,0.4-2.8,0.4-4-0.1l-10.7-4.1c-0.7-0.3-1.5-0.3-2.2,0l-6.2,2.7
			c-0.5,0.2-1,0.6-1.3,1.1l-3.4,5.6c0,0-0.1,0.2-0.1,0.3c-0.2,0.6-0.2,1.2,0,1.7c0.2,0.4,0.5,0.8,1.1,1.2c1.2,0.7,2.1,0.6,2.9,0
			c0.3-0.2,0.4-0.4,0.5-0.4l2.2-3.1c1.1-1.5,2.9-2.4,4.8-2.2c0.6,0.1,1.2,0.2,1.8,0.5L64,68.2c0.4,0.2,0.9,0.5,1.2,0.8L75,77.9z
			 M77.2,80c0.7,1,1.2,2.1,1.2,3.3c0.1,1.7-0.5,3.3-1.8,4.3c-0.4,0.3-0.9,0.6-1.4,0.8c-1.2,0.5-2.4,0.5-3.5,0.2
			c-0.1,0.6-0.3,1.2-0.6,1.7c-0.3,0.7-0.8,1.4-1.4,2c-1.8,1.8-3.9,2.1-6,1.4c-0.4,1.1-0.9,1.7-2.4,2.9c-1.2,0.9-3.5,1.5-4.9,1.3
			c-0.3,0-0.5-0.1-0.8-0.2c0,0.2-0.1,0.3-0.2,0.5c0,0.1-0.1,0.1-0.1,0.2c-0.1,0.1-0.3,0.7-0.4,0.8c-0.2,0.4-0.3,0.7-0.5,0.9
			c-0.9,1.1-1.7,1.7-2.9,2c-0.4,0.1-0.9,0.2-1.4,0.2H50c-0.4,0-0.8,0-1.2-0.1c-0.7-0.1-1.3-0.4-1.9-0.7c-0.3-0.2-1-0.7-0.8-0.5
			l-3-1.9c-0.9,0.8-2.1,1.4-3.5,1.4c-2.3,0-4.3-1.6-4.9-3.7c-1.3,0.3-2.7,0-3.8-0.9l-0.6-0.5c-0.8-0.6-1.3-1.5-1.5-2.4
			c-1.3,0.3-2.6,0-3.8-0.8c-1.2-0.8-1.9-2.1-2-3.4c-1.3,0.2-2.6-0.1-3.7-1c-1.6-1.3-2.2-3.4-1.6-5.2L15,80.9l-0.4,0.7
			c-0.8,1.3-2.2,2-3.6,2c-0.8,0-1.6-0.2-2.3-0.6l-6.4-3.7c-2.1-1.2-2.9-3.8-1.7-5.8l13.3-22.8c0.8-1.3,2.2-2,3.6-2
			c0.8,0,1.6,0.2,2.3,0.6l6.4,3.7c1.7,1,2.6,2.9,2.2,4.7c0,0,0.1,0.1,0.1,0.1c0.3,0.2,0.6,0.4,0.9,0.5c0.2,0.1,0.3,0.1,0.3,0.1
			c0.2,0,1.1-0.6,2.2-1.4c0.2-0.2,0.5-0.4,0.7-0.6c0.6-0.5,1.2-1,1.8-1.5c0.2-0.2,0.4-0.4,0.6-0.5c0.1-0.1,0.2-0.2,0.2-0.2l0.1-0.1
			c0.3-0.2,0.7-0.5,1.3-0.8c1.3-0.6,2.6-0.9,4-0.7c1,0.1,2.1,0.5,3.1,0.9c0.4,0.2,0.8,0.4,1.1,0.5l3.9-1.7c1.4-0.6,3-0.6,4.5-0.1
			l10.7,4.1c0.6,0.2,1.3,0.3,1.9,0.1l2.2-0.9c-0.8-1.9,0-4.3,1.9-5.4l6.4-3.7c0.7-0.4,1.5-0.6,2.3-0.6c1.5,0,2.9,0.7,3.6,2
			l13.3,22.8c1.2,2,0.4,4.6-1.7,5.8l-6.4,3.7c-0.7,0.4-1.5,0.6-2.3,0.6c-1.5,0-2.9-0.7-3.6-2l-0.9-1.5L77.2,80z M16.5,78.3l2.8,1.8
			l1-1.3c1.7-2.1,4.7-2.4,6.8-0.8c0.6,0.5,1.1,1.2,1.4,1.9c1.6-1.3,4-1.4,5.8-0.1c1.6,1.1,2.3,3,2,4.7c0.7,0.1,1.3,0.4,1.9,0.9
			l0.6,0.5c1.4,1.1,1.9,2.9,1.6,4.6c2.4,0.4,4.3,2.5,4.3,5c0,0.4,0,0.7-0.1,1.1l3.1,2c-0.1-0.1,0.5,0.3,0.6,0.4
			c0.3,0.2,0.6,0.3,1,0.4c0.2,0,0.4,0.1,0.6,0.1h0.4c0.2,0,0.4,0,0.6-0.1c0.6-0.2,0.9-0.4,1.3-1c0,0,0-0.1,0.1-0.2
			c0-0.1,0.3-0.7,0.3-0.8c0-0.1,0.1-0.2,0.1-0.2c0.2-0.4,0.1-0.8-0.2-1.2l-5.2-5.2c-1.4-1.4,0.7-3.5,2.1-2.1l5.2,5.2
			c0,0,0,0,0.1,0.1c0.6,0.6,1.4,1,2.1,1.1c0.5,0.1,2-0.3,2.5-0.7c1.2-1,1.3-1.1,1.6-1.9c0-0.1,0-0.3-0.1-0.4l-7-6.8
			c-1.4-1.4,0.7-3.5,2.1-2.1l7.4,7.2c1.5,1.1,2.9,1.2,4.2,0c0.3-0.3,0.6-0.7,0.8-1.1c0.4-0.9,0.5-1.8,0.5-2.5c0,0,0.2,0.3,0.5,1
			l-9.1-8.3l2-2.2l9.1,8.3l-0.2-0.1c0.1,0.1,0.3,0.2,0.6,0.3c0.8,0.3,1.6,0.4,2.3,0.1c0.2-0.1,0.4-0.2,0.6-0.4
			c0.5-0.4,0.7-1,0.7-1.9c0-0.8-0.4-1.6-1.1-2.2L63.2,71.2c-0.2-0.1-0.3-0.3-0.5-0.3l-11.8-5.7c-0.2-0.1-0.5-0.2-0.8-0.2
			c-0.8-0.1-1.6,0.3-2,0.9l-2.2,3.2c-0.2,0.3-0.6,0.7-1.1,1.1c-1.7,1.3-3.9,1.5-6.2,0.2c-1.2-0.7-2-1.6-2.4-2.7
			c-0.5-1.3-0.4-2.5,0-3.7c0.1-0.4,0.3-0.6,0.4-0.9l3.4-5.6c0.4-0.6,0.8-1.2,1.4-1.6c-0.3-0.1-0.7-0.2-1-0.2
			c-0.7-0.1-1.5,0.1-2.3,0.4c-0.3,0.2-0.6,0.3-0.8,0.4c0,0-0.1,0.1-0.2,0.1c-0.2,0.2-0.4,0.3-0.6,0.5c-0.6,0.6-1.3,1.1-1.9,1.6
			c-0.3,0.2-0.5,0.4-0.8,0.6c-1.6,1.2-2.7,1.9-3.6,2c-0.7,0.1-1.3-0.1-2-0.4c-0.4-0.2-0.7-0.4-1.1-0.6L16.5,78.3z M36.3,91.8l1-1.3
			c0.5-0.7,0.4-1.7-0.2-2.2l-0.6-0.5c-0.6-0.5-1.6-0.4-2.1,0.2L32,91c-0.5,0.7-0.4,1.7,0.2,2.2l0.6,0.5c0.6,0.5,1.6,0.4,2.1-0.2
			l0.2-0.3C35.5,92.6,35.8,92.2,36.3,91.8z M32.5,85.6l0.7-0.8c0.6-0.8,0.4-2-0.5-2.5c-0.8-0.6-2-0.4-2.7,0.5l-3.6,4.5
			c-0.6,0.8-0.4,2,0.4,2.6c0.8,0.6,2,0.4,2.7-0.5l0.2-0.2c0,0,0,0,0,0l2.3-3C32.1,86,32.3,85.8,32.5,85.6z M25.3,80.4
			c-0.8-0.6-2-0.5-2.6,0.3l-1.8,2.2c-0.6,0.8-0.5,2,0.3,2.6c0.8,0.6,2,0.5,2.6-0.3l1.8-2.2C26.3,82.2,26.1,81,25.3,80.4z M41.8,95.5
			c0-1.1-0.9-2.1-2.1-2.1s-2.1,0.9-2.1,2.1s0.9,2.1,2.1,2.1S41.8,96.7,41.8,95.5z M17.4,52c-0.1,0-0.6,0-0.8,0.4L3.4,75.1
			c-0.1,0.2-0.1,0.4-0.1,0.6c0.1,0.3,0.3,0.5,0.6,0.7l6.4,3.7c0.2,0.1,0.4,0.2,0.6,0.2c0.1,0,0.6,0,0.8-0.4L25,57.2
			c0.1-0.2,0.1-0.4,0.1-0.6c-0.1-0.3-0.3-0.5-0.6-0.7l-6.4-3.7C17.9,52,17.6,52,17.4,52z M78.6,49.3c-0.2,0-0.4,0.1-0.6,0.2
			l-6.4,3.7c-0.3,0.2-0.5,0.4-0.6,0.7c-0.1,0.2,0,0.4,0.1,0.6l13.3,22.8c0.2,0.4,0.6,0.4,0.8,0.4c0.2,0,0.4-0.1,0.6-0.2l6.4-3.7
			c0.3-0.2,0.5-0.4,0.6-0.7c0.1-0.2,0-0.4-0.1-0.6L79.3,49.7C79.1,49.3,78.7,49.3,78.6,49.3z M14.7,61.4c0.4-0.7,1.3-1,2-0.6
			s1,1.3,0.6,2l-4.4,8c-0.4,0.7-1.3,1-2,0.6c-0.7-0.4-1-1.3-0.6-2L14.7,61.4z M9.5,76C8.7,76,8,75.3,8,74.5S8.7,73,9.5,73
			s1.5,0.7,1.5,1.5S10.3,76,9.5,76z"/>
	</g>
</g>
</svg>
