<svg id="Layer_1" data-name="Layer 1" xmlns="http://www.w3.org/2000/svg" viewBox="0 0 96 96"><title>Untitled-2</title><path d="M88.39,35.82a5.75,5.75,0,0,0-3.13-3.13L36.77,12.6a5.8,5.8,0,0,0-7.56,3.13l-9.69,23.4H12a4.3,4.3,0,0,0-4.29,4.29V77.69A4.3,4.3,0,0,0,12,82H67.66a4.3,4.3,0,0,0,4.29-4.29V72.46a5.79,5.79,0,0,0,4.56-3.51l11.89-28.7A5.74,5.74,0,0,0,88.39,35.82ZM33.49,15.37a2.77,2.77,0,0,1,2.13,0l48.5,20.09a2.8,2.8,0,0,1,1.51,3.64l-0.91,2.19L31.1,19,32,16.88A2.77,2.77,0,0,1,33.49,15.37ZM82.13,47.52l-10.2-4.24a4.29,4.29,0,0,0-4.27-4.17H61.88l-0.07,0L28.51,25.25l1.44-3.47L83.57,44.05ZM27.36,28l26.72,11.1H22.76ZM68.94,77.69A1.3,1.3,0,0,1,67.66,79H12a1.3,1.3,0,0,1-1.29-1.29V43.41A1.3,1.3,0,0,1,12,42.12H67.66a1.3,1.3,0,0,1,1.29,1.29V77.69Zm4.79-9.89a2.77,2.77,0,0,1-1.79,1.59V46.54l9,3.75Z" style="fill:#e10a0a"/><path d="M57.48,60.66a6.31,6.31,0,0,0-3.22.88,6.32,6.32,0,1,0,0,10.87A6.32,6.32,0,1,0,57.48,60.66ZM47.73,67a3.32,3.32,0,1,1,3.32,3.32A3.32,3.32,0,0,1,47.73,67Zm9.75,3.32a3.31,3.31,0,0,1-1-.16,6.27,6.27,0,0,0,0-6.32A3.31,3.31,0,1,1,57.48,70.3Z" style="fill:#e10a0a"/><path d="M16.24,53.48h45a1.5,1.5,0,0,0,0-3h-45A1.5,1.5,0,1,0,16.24,53.48Z" style="fill:#e10a0a"/><path d="M16.24,65.26H37.66a1.5,1.5,0,0,0,0-3H16.24A1.5,1.5,0,0,0,16.24,65.26Z" style="fill:#e10a0a"/><path d="M33.38,68.69H16.24a1.5,1.5,0,0,0,0,3H33.38A1.5,1.5,0,0,0,33.38,68.69Z" style="fill:#e10a0a"/><circle cx="38.2" cy="70.19" r="1.61" style="fill:#e10a0a"/></svg>