<svg id="Layer_1" data-name="Layer 1" xmlns="http://www.w3.org/2000/svg" viewBox="0 0 96 96"><title>Untitled-2</title><path d="M22.17,35.12a4.75,4.75,0,1,0-4.75,4.75A4.75,4.75,0,0,0,22.17,35.12Zm-4.75,1.75a1.75,1.75,0,1,1,1.75-1.75A1.75,1.75,0,0,1,17.42,36.86Z" style="fill:#e10a0a"/><path d="M65.16,39.86a4.75,4.75,0,1,0-4.75-4.75A4.75,4.75,0,0,0,65.16,39.86Zm0-6.49a1.75,1.75,0,1,1-1.75,1.75A1.75,1.75,0,0,1,65.16,33.37Z" style="fill:#e10a0a"/><path d="M90.5,70.65V51.76a1,1,0,0,0,0-.41V45.71a4.21,4.21,0,0,0-4.21-4.21H76.5V19.71a4.21,4.21,0,0,0-4.21-4.21H66.71a1.46,1.46,0,0,0-.58,0H15.45a1.46,1.46,0,0,0-.58,0H9.71A4.21,4.21,0,0,0,5.5,19.71V50.29A4.21,4.21,0,0,0,9.71,54.5H19.5V76.29a4.21,4.21,0,0,0,4.21,4.21H86.29a4.21,4.21,0,0,0,4.21-4.21V71.06A1,1,0,0,0,90.5,70.65ZM79.63,77.5H31.15a9.5,9.5,0,0,0-8.65-8.11V53a9.51,9.51,0,0,0,8.71-8.52H79.57a9.51,9.51,0,0,0,7.93,8.43V69.49A9.5,9.5,0,0,0,79.63,77.5Zm-50-42.38A11.64,11.64,0,1,1,51,41.5H46.53a1.49,1.49,0,0,0-2.34-1.35,3.51,3.51,0,0,1-2,.65,4.17,4.17,0,0,1-3.51-2.3H43.5a1.5,1.5,0,0,0,0-3H37.78c0-.19,0-0.38,0-0.57s0-.29,0-0.43H43.5a1.5,1.5,0,0,0,0-3H38.6a4.22,4.22,0,0,1,3.58-2.43,3.51,3.51,0,0,1,2,.65,1.5,1.5,0,1,0,1.69-2.48,6.55,6.55,0,0,0-3.7-1.17c-3.08,0-5.72,2.24-6.85,5.43H33.5a1.5,1.5,0,0,0,0,3h1.27c0,0.14,0,.29,0,0.43s0,0.38,0,.57H33.5a1.5,1.5,0,0,0,0,3h1.89a9,9,0,0,0,1.82,3H31.57A11.54,11.54,0,0,1,29.65,35.12ZM22.5,50V45.71a1.21,1.21,0,0,1,1.21-1.21h4.48A6.5,6.5,0,0,1,22.5,50Zm65-4.31v4.17a6.51,6.51,0,0,1-4.9-5.37h3.7A1.21,1.21,0,0,1,87.5,45.71Zm-14-26V23.4a6.51,6.51,0,0,1-5.39-4.9h4.18A1.21,1.21,0,0,1,73.5,19.71ZM9.71,18.5h3.77a6.51,6.51,0,0,1-5,4.83V19.71A1.21,1.21,0,0,1,9.71,18.5ZM8.5,50.29V46.91a6.49,6.49,0,0,1,4.91,4.59H9.71A1.21,1.21,0,0,1,8.5,50.29Zm8,1.21a9.47,9.47,0,0,0-8-7.63V26.36a9.5,9.5,0,0,0,8-7.86H65.06a9.51,9.51,0,0,0,8.44,7.92V41.5h-19a14.64,14.64,0,1,0-26.34,0H23.71a4.21,4.21,0,0,0-4.21,4.21V51.5h-3Zm6,24.79V72.4a6.51,6.51,0,0,1,5.62,5.1H23.71A1.21,1.21,0,0,1,22.5,76.29ZM86.29,77.5H82.67a6.51,6.51,0,0,1,4.83-5v3.75A1.21,1.21,0,0,1,86.29,77.5Z" style="fill:#e10a0a"/><path d="M32.33,56a4.57,4.57,0,1,0,4.57,4.57A4.57,4.57,0,0,0,32.33,56Zm0,6.13a1.57,1.57,0,1,1,1.57-1.57A1.57,1.57,0,0,1,32.33,62.09Z" style="fill:#e10a0a"/><path d="M77.45,56A4.57,4.57,0,1,0,82,60.52,4.57,4.57,0,0,0,77.45,56Zm0,6.13A1.57,1.57,0,1,1,79,60.52,1.57,1.57,0,0,1,77.45,62.09Z" style="fill:#e10a0a"/><path d="M54.52,55.69a3.92,3.92,0,0,1,2.58.81,1.5,1.5,0,1,0,2.25-2,6.68,6.68,0,0,0-2.85-1.59V51.5a1.5,1.5,0,0,0-3,0v1.36a4.58,4.58,0,0,0-2.83,2.49,4.57,4.57,0,0,0,2.29,6l2.38,1.08a1.56,1.56,0,0,1,.82,2,1.65,1.65,0,0,1-1.27.94,3.22,3.22,0,0,1-2.12-.88,1.5,1.5,0,0,0-2.41,1.78,6.14,6.14,0,0,0,3.16,1.94V69.5a1.5,1.5,0,0,0,3,0V68a5,5,0,0,0,2.27-2.1l0.09-.16a4.57,4.57,0,0,0-2.29-6l-2.38-1.08a1.54,1.54,0,0,1-.82-0.87,1.52,1.52,0,0,1,0-1.12A1.5,1.5,0,0,1,54.52,55.69Z" style="fill:#e10a0a"/><path d="M54.89,46.07a14.64,14.64,0,1,0,5.74,28.11,1.5,1.5,0,0,0-1.18-2.76A11.64,11.64,0,1,1,64.65,67a1.5,1.5,0,0,0,2.51,1.64A14.64,14.64,0,0,0,54.89,46.07Z" style="fill:#e10a0a"/><circle cx="63.38" cy="70.72" r="1.5" style="fill:#e10a0a"/></svg>