<svg id="Layer_1" data-name="Layer 1" xmlns="http://www.w3.org/2000/svg" viewBox="0 0 96 96"><title>Untitled-2</title><path d="M87.12,69.08l-28.2-6.41-0.42-.07-0.27,0a31,31,0,0,0,12-9.71c4.47-2.65,7.24-6,8-9.66,0.71-3.3-.15-6.69-2.56-10.08L75.65,33c-2.89-4.06-10.77-6.21-16-7.23a38.5,38.5,0,0,0-1-7.55C57,11.32,53.63,6.82,49.18,5.58s-9.65.88-14.67,5.95a39.47,39.47,0,0,0-8.9,14.21C19.56,26.88,11.9,29.06,9.11,33L9,33.13c-2.42,3.39-3.28,6.78-2.56,10.09,0.75,3.47,3.28,6.63,7.31,9.2a1.49,1.49,0,0,0,.29.24l0.48,0.27A32.36,32.36,0,0,0,31.25,64.4c-7.06.64-12.85,1.22-13.41,1.27a3,3,0,0,0-3.16,3.19c0.07,1.33,1,2.73,3.26,2.73H18l19.76-.88C29,73.65,22,78.5,23.9,90.15a1.38,1.38,0,0,0,2.47.6c1.47-2,3.71-2.93,6.08-3.93,4.88-2.07,10.4-4.41,10.62-15.83a1.37,1.37,0,0,0-.1-0.51l14.08-.63a6.56,6.56,0,0,1,2.23.28l25.53,7.71A4.57,4.57,0,0,0,86,78H86A4.53,4.53,0,0,0,87.12,69.08ZM36.64,13.64c4.16-4.2,8.44-6.09,11.74-5.17s6,4.74,7.38,10.48a36.28,36.28,0,0,1-.15,17.21,24.68,24.68,0,0,1-1.54,4.08,97.13,97.13,0,0,1-11.68.69,93.66,93.66,0,0,1-14.83-1.13,22.84,22.84,0,0,1,.34-11.35A36.28,36.28,0,0,1,36.64,13.64ZM9.42,42.58c-0.52-2.42.15-5,2-7.61l0.1-.14c1.54-2.31,6.3-4.41,13.15-5.85a25.85,25.85,0,0,0-.3,10.23,44.63,44.63,0,0,1-7.76-2.31,1.5,1.5,0,1,0-1.15,2.77c6.52,2.71,16.33,4.26,26.93,4.26,9.23,0,17.87-1.17,24.33-3.3a1.5,1.5,0,1,0-.94-2.85,56.36,56.36,0,0,1-8.21,2A28,28,0,0,0,58.5,37a35.49,35.49,0,0,0,1.19-8.11c6.94,1.42,12,3.62,13.57,6L73.35,35c1.85,2.63,2.52,5.19,2,7.6-0.63,2.9-3,5.62-6.89,7.87a1.49,1.49,0,0,0-.3.24h0c-6.2,3.5-15.25,5.43-25.49,5.43H42.11a65.46,65.46,0,0,1-17.58-2.23h0a35.67,35.67,0,0,1-8.1-3.33l-0.11-.08C12.43,48.22,10,45.49,9.42,42.58ZM23.7,56.76h0a68.51,68.51,0,0,0,18.4,2.35h0.55a65.8,65.8,0,0,0,20.22-2.91,33.79,33.79,0,0,1-41.08,0C22.43,56.37,23,56.58,23.7,56.76Zm7.67,27.52a23.27,23.27,0,0,0-5,2.63C26.17,79,31.52,75.47,40.22,72.82,39.56,80.81,35.74,82.43,31.37,84.28ZM87.72,73.92A1.82,1.82,0,0,1,86,75.27a1.89,1.89,0,0,1-.44,0l-25.48-7.7a9.39,9.39,0,0,0-2.72-.4H56.93L37.76,68,18,68.87a0.66,0.66,0,0,1-.61-0.14c0-.1,0-0.31.65-0.34,5.47-.54,16-1.53,24.89-2.26a38.78,38.78,0,0,0,4.25-.33,104.9,104.9,0,0,1,11-.5l0.11,0,28.13,6.39A1.81,1.81,0,0,1,87.72,73.92Z" style="fill:#e10a0a"/><circle cx="70.71" cy="37.78" r="1.61" style="fill:#e10a0a"/></svg>