<svg id="Layer_1" data-name="Layer 1" xmlns="http://www.w3.org/2000/svg" viewBox="0 0 96 96"><title>Untitled-2</title><path d="M32.89,72.48H19.34V42.31a1.5,1.5,0,0,0-3,0V72.8a2.66,2.66,0,0,0,2.88,2.68H32.89A1.5,1.5,0,0,0,32.89,72.48Z" style="fill:#e10a0a"/><path d="M84.14,43.41H83.71V31.48a8,8,0,0,0-8-7.8H75.4V22.4c0-3.72-1-6.39-2.88-8-1.69-1.37-4-1.77-6.78-1.19L15,23c-1.46.28-4.85,1.63-4.85,8.16h0c0,0.12,0,.24,0,0.36V74.13a7.33,7.33,0,0,0,7.42,7.58H75.66a7.83,7.83,0,0,0,8-7.58V62h0.43A4.43,4.43,0,0,0,88.9,57.6V48A4.64,4.64,0,0,0,84.14,43.41ZM66.33,16.2c1.9-.39,3.34-0.2,4.3.58C72.09,18,72.4,20.5,72.4,22.4v1.28H27.16ZM80.71,74.13a4.84,4.84,0,0,1-5,4.58H17.53a4.31,4.31,0,0,1-4.42-4.58V31.48a4.47,4.47,0,0,1,4.42-4.8H75.66a5,5,0,0,1,5,4.8V43.41H69.88a9.87,9.87,0,0,0-9.93,9.24V52.9h0c0.14,5,4.54,9.08,9.93,9.08H80.71V74.13ZM85.9,57.6c0,1.28-1.35,1.38-1.76,1.38H69.88c-3.71,0-6.85-2.83-6.93-6.21a6.83,6.83,0,0,1,6.93-6.36H84.14A1.62,1.62,0,0,1,85.9,48V57.6Z" style="fill:#e10a0a"/><circle cx="37.69" cy="74.12" r="1.56" style="fill:#e10a0a"/><path d="M70.5,47.82a5,5,0,1,0,5,5A5,5,0,0,0,70.5,47.82Zm0,7a2,2,0,1,1,2-2A2,2,0,0,1,70.5,54.79Z" style="fill:#e10a0a"/></svg>