<svg id="Layer_1" data-name="Layer 1" xmlns="http://www.w3.org/2000/svg" viewBox="0 0 96 96"><title>Untitled-2</title><path d="M74.36,16H56V13.1A2.1,2.1,0,0,0,53.9,11H49V5a1.5,1.5,0,0,0-3,0v6H41.1A2.1,2.1,0,0,0,39,13.1V16H21.33A5.32,5.32,0,0,0,16,21.29V62a5.05,5.05,0,0,0,5.33,5H23v3a3.26,3.26,0,0,0,2.9,3H39.63L33.75,89.15a1.5,1.5,0,1,0,2.82,1L42.82,73H46V90a1.5,1.5,0,0,0,3,0V73h2.85L58.1,90.18a1.5,1.5,0,1,0,2.82-1L55,73H69.79c0.37,0,2.21-.15,2.21-3V67h2.36C77.47,67,80,64.76,80,62V21.29A5.62,5.62,0,0,0,74.36,16ZM42,14H53v2H42V14ZM77,62c0,1.19-1.36,2-2.64,2H41a1.5,1.5,0,0,0,0,3H69v3H26.13A1,1,0,0,1,26,69.84V67h6a1.5,1.5,0,0,0,0-3H21.33A2.12,2.12,0,0,1,19,62V21.29A2.34,2.34,0,0,1,21.33,19h53A2.65,2.65,0,0,1,77,21.29V62Z" style="fill:#e10a0a"/><path d="M37,57.78V47.22A2.22,2.22,0,0,0,34.78,45H27.22A2.22,2.22,0,0,0,25,47.22V57.78A2.22,2.22,0,0,0,27.22,60h7.57A2.22,2.22,0,0,0,37,57.78ZM34,57H28V48h6v9Z" style="fill:#e10a0a"/><path d="M51.56,37H44.44A2.44,2.44,0,0,0,42,39.44V57.56A2.44,2.44,0,0,0,44.44,60h7.13A2.44,2.44,0,0,0,54,57.56V39.44A2.44,2.44,0,0,0,51.56,37ZM51,57H45V40h6V57Z" style="fill:#e10a0a"/><path d="M68.34,26H61.66A2.67,2.67,0,0,0,59,28.66V57.34A2.67,2.67,0,0,0,61.66,60h6.67A2.67,2.67,0,0,0,71,57.34V28.66A2.67,2.67,0,0,0,68.34,26ZM68,57H62V29h6V57Z" style="fill:#e10a0a"/><circle cx="36.48" cy="65.78" r="1.5" transform="translate(-35.83 45.06) rotate(-45)" style="fill:#e10a0a"/></svg>