<svg id="Layer_1" data-name="Layer 1" xmlns="http://www.w3.org/2000/svg" viewBox="0 0 96 96"><title>Untitled-2</title><circle cx="51.2" cy="72.6" r="1.56" style="fill:#e10a0a"/><path d="M88.79,47c0.84-1.83.64-4.52-1.16-5.85a3.8,3.8,0,0,0-5.23.59,5.58,5.58,0,0,0-1.42,4,19.75,19.75,0,0,1-1.53-4.1l0-.15c-0.08-.32-0.17-0.64-0.23-1a1.5,1.5,0,0,0-.1-0.31A32.53,32.53,0,0,0,61.84,19.5a12.54,12.54,0,0,0-23.7-1.86,32.46,32.46,0,0,0-5.44,2.19L20,16.1a3.08,3.08,0,0,0-3.62,4.34l4.72,9.35a28.86,28.86,0,0,0-3.71,6.67h-2.5a6.7,6.7,0,0,0-6.66,6.71V53.47a6.7,6.7,0,0,0,6.66,6.73H17a33.51,33.51,0,0,0,6,10.15l-1.67,3.43a6.12,6.12,0,0,0-.25,4.81,6.38,6.38,0,0,0,3.43,3.66l7.41,3.31a6.67,6.67,0,0,0,2.73.58,6.6,6.6,0,0,0,6-3.64l0.79-1.62a33.11,33.11,0,0,0,6.06.59,31.79,31.79,0,0,0,6.4-.6l0.79,1.63a6.66,6.66,0,0,0,8.68,3.06l7.41-3.31a6.37,6.37,0,0,0,3.43-3.66,6.13,6.13,0,0,0-.25-4.81l-1.7-3.5a32.49,32.49,0,0,0,8-20.64,3.78,3.78,0,0,0,2.08.91c0.28,0,.56,0,0.82,0a13.27,13.27,0,0,0,2.95,1.92,1.5,1.5,0,0,0,1.35-2.68l-0.58-.3A6.25,6.25,0,0,0,88.79,47ZM49.7,13a9.15,9.15,0,0,1,9.39,8.87A8.46,8.46,0,0,1,59,23.3a28,28,0,0,0-18.65-1.44A9.15,9.15,0,0,1,49.7,13ZM69.33,69a1.5,1.5,0,0,0-.25,1.68l2.14,4.41a3.16,3.16,0,0,1,.13,2.48,3.4,3.4,0,0,1-1.83,1.94L62.1,82.81a3.65,3.65,0,0,1-4.76-1.63L56,78.49a1.5,1.5,0,0,0-1.69-.81,28.73,28.73,0,0,1-6.88.77,30.2,30.2,0,0,1-6.58-.76,1.5,1.5,0,0,0-1.68.81l-1.3,2.67a3.65,3.65,0,0,1-4.76,1.63L25.74,79.5a3.4,3.4,0,0,1-1.84-1.94A3.14,3.14,0,0,1,24,75.09l2.12-4.34a1.5,1.5,0,0,0-.25-1.68,30.42,30.42,0,0,1-6.41-10.86,1.5,1.5,0,0,0-1.42-1H14.93a3.74,3.74,0,0,1-3.66-3.73V43.16a3.74,3.74,0,0,1,3.66-3.71h3.54a1.5,1.5,0,0,0,1.42-1,26.33,26.33,0,0,1,4.19-7.6,1.5,1.5,0,0,0,.15-1.59L19.09,19.08l-1.34.68L19.18,19l13.26,3.9a1.5,1.5,0,0,0,1.14-.12,29.51,29.51,0,0,1,3.78-1.69c0,0.27,0,.53,0,0.81s0,0.65,0,1c-0.43.17-.86,0.35-1.28,0.54a1.5,1.5,0,1,0,1.24,2.73,25,25,0,0,1,25.25,2.73,1.5,1.5,0,1,0,1.8-2.4,28.2,28.2,0,0,0-2.63-1.72A11.37,11.37,0,0,0,62,23,29.54,29.54,0,0,1,76.36,41.69c0.05,0.24.12,0.5,0.19,0.79A29.59,29.59,0,0,1,69.33,69ZM86.07,45.75a2.64,2.64,0,0,1-1.67,1.68A2.24,2.24,0,0,1,84.24,47a3.18,3.18,0,0,1,.4-3.3,1,1,0,0,1,.7-0.37,0.86,0.86,0,0,1,.51.19A2.11,2.11,0,0,1,86.07,45.75Z" style="fill:#e10a0a"/><circle cx="28.94" cy="39.51" r="1.56" style="fill:#e10a0a"/><path d="M72,40.22a1.5,1.5,0,1,0-2.83,1,22.91,22.91,0,0,1-14,29.2,1.5,1.5,0,1,0,1,2.83A25.91,25.91,0,0,0,72,40.22Z" style="fill:#e10a0a"/></svg>