<svg id="Layer_1" data-name="Layer 1" xmlns="http://www.w3.org/2000/svg" viewBox="0 0 96 96"><title>Untitled-2</title><circle cx="27.44" cy="45.06" r="1.43" style="fill:#e10a0a"/><path d="M85.92,28.51a1.49,1.49,0,0,0-.24-0.84A40.67,40.67,0,0,0,30.85,14.58L27.79,9.8a1.5,1.5,0,1,0-2.53,1.62l3.06,4.78A40.67,40.67,0,0,0,17.26,71.47a1.5,1.5,0,1,0,2.53-1.62,8.28,8.28,0,1,1,13.95-8.93,1.49,1.49,0,0,0,.23.27L34,61.26l0.19,0.14,0.1,0.05,0.24,0.09,0.08,0a1.5,1.5,0,0,0,.33,0H35a1.48,1.48,0,0,0,.32,0l0.09,0a1.48,1.48,0,0,0,.35-0.16h0a1.5,1.5,0,0,0,.45-2.07,8.28,8.28,0,1,1,13.95-8.93h0L66.75,76.21a9,9,0,0,0,5.66,3.95,9.07,9.07,0,0,0,1.95.21,9,9,0,0,0,7.58-13.88,1.5,1.5,0,1,0-2.53,1.62,6,6,0,0,1-10.13,6.49L52.73,48.75a8.28,8.28,0,0,1,14-8.92,1.5,1.5,0,0,0,.23.27L67,40.17l0.19,0.14,0.1,0.06,0.23,0.09,0.08,0a1.5,1.5,0,0,0,.33,0H68a1.48,1.48,0,0,0,.32,0l0.1,0a1.48,1.48,0,0,0,.35-0.16,1.5,1.5,0,0,0,.45-2.07,8.28,8.28,0,0,1,13.95-8.93,1.48,1.48,0,0,0,1.68.63,1.44,1.44,0,0,0,1-1,1.5,1.5,0,0,0,.08-0.4S85.92,28.52,85.92,28.51ZM37.15,45.34a11.24,11.24,0,0,0-4.9,7c-0.73-1.44-1.41-2.86-2-4.25a1.5,1.5,0,0,0-2.77,1.16c0.74,1.77,1.61,3.57,2.57,5.4A11.24,11.24,0,0,0,16,62.07a37.74,37.74,0,0,1,9.2-39.43c-1.51,4.3-2.39,10.57-.28,19a1.5,1.5,0,0,0,2.91-.73c-3-11.77.44-18.82,2.41-21.68L46.09,43.94l-0.44-.12A11.22,11.22,0,0,0,37.15,45.34ZM53.63,34.79a11.24,11.24,0,0,0-5,7.54L32.77,17.57c4.44-.72,16.3-0.68,29.25,15.69A11.24,11.24,0,0,0,53.63,34.79ZM70.1,24.24a11.26,11.26,0,0,0-5.08,8C54.64,18.69,44.73,15,38.07,14.41a37.74,37.74,0,0,1,39.6,8.17A11.22,11.22,0,0,0,70.1,24.24Z" style="fill:#e10a0a"/></svg>