<svg id="Layer_1" data-name="Layer 1" xmlns="http://www.w3.org/2000/svg" viewBox="0 0 96 96"><title>Untitled-2-04</title><circle cx="41.12" cy="67.44" r="1.5" transform="translate(-35.64 48.83) rotate(-45)" style="fill:#e10a0a"/><path d="M82.59,18.75H53.34l-3.64-3.6a1.5,1.5,0,0,0-2.11,0l-3.51,3.47-10.43,0V13.81a2,2,0,0,0-.56-1.5,2.31,2.31,0,0,0-1.78-.56H24.16a2.58,2.58,0,0,0-1.95.61,2,2,0,0,0-.57,1.45v4.91l-7,0a3.32,3.32,0,0,0-2.41.74,2.05,2.05,0,0,0-.6,1.47V51.28a1.5,1.5,0,0,0,2.55,1.07l2.45-2.42V82.25a1.5,1.5,0,0,0,1.5,1.5h61a1.5,1.5,0,0,0,1.5-1.5V49.93l2.45,2.42a1.5,1.5,0,0,0,2.55-1.07V21.18C85.64,19.8,84.33,18.75,82.59,18.75Zm-10,19-4.06-4H82.64v4H72.58Zm10.06-7H65.5l-4.06-4h21.2v4Zm0-9h0v2h-24l-0.22,0-2-2H82.59Zm-58-7h6v3.93l-6,0v-4Zm-10,7L41,21.64l-9.24,9.13H14.64v-4h13a1.5,1.5,0,0,0,0-3h-13v-2h0Zm10.06,16H14.64v-4H28.76Zm-10.07,3h7l-7,6.94V40.75Zm17,40v-27h14v27h-14Zm46,0h-29V52.25a1.5,1.5,0,0,0-1.5-1.5h-17a1.5,1.5,0,0,0-1.5,1.5v28.5h-9V47l29-28.64L51.34,21a1.5,1.5,0,0,0,.58.58L77.64,47V80.75Zm-2-40h7v6.94Z" style="fill:#e10a0a"/><path d="M54.14,70.75h14a1.5,1.5,0,0,0,1.5-1.5v-17a1.5,1.5,0,0,0-1.5-1.5h-14a1.5,1.5,0,0,0-1.5,1.5v17A1.5,1.5,0,0,0,54.14,70.75Zm1.5-17h11v14h-11v-14Z" style="fill:#e10a0a"/><circle cx="32.36" cy="25.66" r="1.5" transform="translate(-8.67 30.4) rotate(-45)" style="fill:#e10a0a"/></svg>