<svg width="42" height="42" viewBox="0 0 42 42" xmlns="http://www.w3.org/2000/svg" xmlns:xlink="http://www.w3.org/1999/xlink"><defs><path id="a" d="M.24.36h27.006v13.55H.24z"/><path id="c" d="M0 .202v16.13H20.815V.202z"/></defs><g transform="translate(-325 -156)" fill="none" fill-rule="evenodd"><circle fill="#F4F4F4" cx="346" cy="177" r="21"/><path d="M335.982 171.74s1.868-10.54 11.696-10.54c7.536 0 8.37 2.092 8.37 2.092s3.48 3.148 4.452 5.772c.97 2.625.144 1.415 0 1.396-.145-.02-4.563.478-4.563.478s.545-1.156-3.46-2.648c-4.006-1.492-6.77 3.19-6.77 3.19s-.906 1.587-1.03 1.448c-.127-.14-8.695-1.19-8.695-1.19" fill="#FFF"/><path d="M336.28 171.526c6.197.76 7.878 1.024 8.364 1.145.166-.18.55-.79.85-1.313.03-.052 2.92-4.844 7.07-3.3 2.013.75 3.246 1.562 3.564 2.346.038.095.06.18.07.257 2.763-.31 4.226-.46 4.334-.445.04.005.074.017.107.036-.063-.223-.175-.57-.372-1.1-.938-2.538-4.35-5.643-4.384-5.674l-.043-.04-.02-.052c-.006-.014-.962-1.937-8.142-1.937-8.66 0-11.03 8.484-11.4 10.08zm8.43 1.163c.085.024.116.04.135.057-.042-.038-.09-.055-.136-.058zm-.218.403c.01.01.018.02.027.026l-.028-.027zm.108.103l-.057-.055c-.533-.14-5.388-.764-8.59-1.156l-.26-.03.046-.26c.018-.106 2.018-10.742 11.938-10.742 6.996 0 8.365 1.82 8.57 2.187.384.35 3.542 3.295 4.483 5.838.59 1.59.553 1.832.34 1.975-.217.146-.43-.05-.584-.192-.02-.02-.04-.038-.058-.053-.375.025-2.833.294-4.464.477l-.44.05.19-.402c-.002 0 .213-.993-3.323-2.31-3.765-1.404-6.444 3.04-6.47 3.084-.882 1.543-1.078 1.563-1.195 1.576l-.125.014z" fill="#67565E"/><path d="M335.668 174.046c0-7.21 5.823-13.054 13.007-13.054 7.184 0 13.007 5.845 13.007 13.054" fill="#FFF"/><g transform="translate(334.932 160.135)"><mask id="b" fill="#fff"><use xlink:href="#a"/></mask><path d="M27.246 13.91h-.99c0-6.923-5.614-12.555-12.513-12.555-6.9 0-12.51 5.632-12.51 12.556H.24C.24 6.44 6.3.36 13.744.36c7.446 0 13.503 6.08 13.503 13.55" fill="#67565E" mask="url(#b)"/></g><path d="M338.033 174.046c0-6.226 5.03-11.274 11.233-11.274 6.204 0 11.233 5.048 11.233 11.274" fill="#FFF"/><path d="M360.995 174.046h-.99c0-5.942-4.818-10.776-10.74-10.776-5.92 0-10.737 4.834-10.737 10.776h-.99c0-6.49 5.26-11.77 11.728-11.77s11.73 5.28 11.73 11.77" fill="#67565E"/><path d="M340.397 174.046c0-5.243 4.236-9.493 9.46-9.493 5.225 0 9.46 4.25 9.46 9.493" fill="#FFF"/><path d="M359.813 174.046h-.99c0-4.96-4.023-8.996-8.965-8.996-4.943 0-8.965 4.036-8.965 8.996h-.99c0-5.51 4.465-9.99 9.955-9.99s9.955 4.48 9.955 9.99" fill="#67565E"/><path d="M342.762 174.046c0-4.26 3.442-7.714 7.687-7.714 4.243 0 7.684 3.454 7.684 7.714" fill="#FFF"/><path d="M358.63 174.046h-.99c0-3.98-3.227-7.216-7.192-7.216-3.965 0-7.19 3.237-7.19 7.216h-.99c0-4.527 3.67-8.21 8.18-8.21 4.512 0 8.182 3.683 8.182 8.21" fill="#67565E"/><path d="M345.127 174.046c0-3.277 2.648-5.933 5.913-5.933s5.912 2.656 5.912 5.933" fill="#FFF"/><path d="M357.448 174.046h-.992c0-2.997-2.43-5.436-5.416-5.436-2.987 0-5.417 2.44-5.417 5.436h-.99c0-3.546 2.873-6.43 6.407-6.43 3.533 0 6.408 2.884 6.408 6.43l-8.42-5.436 8.42 5.436z" fill="#67565E"/><path d="M343.884 172.08c.156.747-.613 1.54-1.718 1.774-1.104.233-2.126-.182-2.283-.927-.156-.746.613-1.54 1.717-1.773 1.105-.233 2.127.182 2.284.927" fill="#FFF"/><path d="M342.21 171.587c-.165 0-.337.018-.507.054-.893.19-1.42.776-1.335 1.184.086.408.803.73 1.697.543.432-.092.825-.294 1.078-.554.12-.123.31-.37.256-.63-.056-.26-.33-.407-.488-.47-.204-.084-.445-.126-.7-.126m-.664 2.83c-1.086 0-1.97-.54-2.15-1.388-.215-1.03.707-2.068 2.1-2.362.63-.134 1.264-.09 1.785.122.58.235.977.67 1.086 1.19.108.52-.08 1.075-.517 1.526-.392.405-.955.7-1.584.834-.247.052-.49.077-.722.077" fill="#67565E"/><path d="M346.645 173.537c0 .655-.53 1.185-1.18 1.185-.653 0-1.18-.53-1.18-1.185 0-.654.527-1.185 1.18-1.185.65 0 1.18.53 1.18 1.185" fill="#FFF"/><path d="M345.464 172.85c-.377 0-.685.308-.685.687 0 .38.307.688.684.688.378 0 .685-.31.685-.688 0-.38-.308-.687-.686-.687m0 2.37c-.924 0-1.676-.755-1.676-1.683 0-.927.752-1.682 1.676-1.682.925 0 1.677.755 1.677 1.682 0 .928-.75 1.682-1.676 1.682" fill="#67565E"/><path d="M345.01 173.883c0 .88-.75 1.593-1.68 1.593-.926 0-1.68-.713-1.68-1.593s.754-1.593 1.68-1.593c.93 0 1.68.713 1.68 1.593" fill="#FFF"/><path d="M343.33 172.787c-.652 0-1.183.492-1.183 1.096 0 .604.53 1.095 1.184 1.095.655 0 1.186-.49 1.186-1.095 0-.604-.53-1.096-1.185-1.096m0 3.186c-1.2 0-2.175-.938-2.175-2.09 0-1.153.976-2.09 2.176-2.09 1.2 0 2.177.937 2.177 2.09 0 1.152-.976 2.09-2.176 2.09" fill="#67565E"/><path d="M335.26 174.837c-.828-.864-1.04-2.01-.47-2.56.568-.55 1.7-.295 2.53.57.83.864 1.04 2.01.472 2.56-.57.55-1.702.294-2.53-.57" fill="#FFF"/><path d="M335.572 172.484c-.152 0-.318.035-.44.15-.203.198-.177.533-.144.714.07.384.3.8.63 1.144.33.343.736.59 1.114.674.18.04.512.08.716-.118.204-.197.18-.532.145-.713-.07-.383-.3-.8-.63-1.143-.33-.344-.736-.59-1.114-.675-.074-.016-.173-.033-.278-.033m1.43 3.71c-.157 0-.32-.02-.487-.057-.57-.13-1.144-.468-1.61-.955-.47-.488-.785-1.075-.89-1.653-.12-.644.038-1.23.43-1.61.394-.38.984-.517 1.62-.374.572.13 1.145.468 1.612.956.468.487.784 1.074.89 1.652.12.644-.04 1.23-.432 1.61-.29.28-.688.43-1.133.43" fill="#67565E"/><path d="M345.12 175.857c0 1.017-.87 1.84-1.944 1.84-1.073 0-1.943-.823-1.943-1.84 0-1.017.87-1.842 1.943-1.842 1.074 0 1.944.825 1.944 1.842" fill="#FFF"/><path d="M343.176 174.512c-.798 0-1.447.603-1.447 1.345 0 .74.648 1.344 1.446 1.344.8 0 1.448-.602 1.448-1.343 0-.742-.65-1.345-1.448-1.345m0 3.684c-1.344 0-2.438-1.05-2.438-2.34 0-1.29 1.094-2.338 2.438-2.338 1.345 0 2.44 1.05 2.44 2.34 0 1.288-1.095 2.338-2.44 2.338" fill="#67565E"/><path d="M336.893 175.483c-.17.56-1.113.767-2.106.464-.995-.304-1.663-1.003-1.494-1.562.17-.56 1.113-.767 2.107-.464.994.305 1.663 1.004 1.493 1.563" fill="#FFF"/><path d="M334.503 174.278c-.42 0-.698.126-.735.25-.022.07.03.22.193.39.222.23.575.432.97.553.396.122.8.15 1.113.083.23-.05.355-.144.376-.214.056-.19-.34-.692-1.164-.943-.28-.086-.536-.12-.753-.12m1.178 2.307c-.333 0-.687-.055-1.038-.162-.56-.17-1.056-.46-1.396-.816-.406-.424-.56-.922-.427-1.366.256-.85 1.427-1.19 2.724-.795 1.297.396 2.08 1.334 1.824 2.183-.135.444-.54.77-1.113.896-.18.04-.373.06-.574.06" fill="#67565E"/><path d="M340.616 172.827c0 .932-.936 1.687-2.092 1.687-1.155 0-2.09-.755-2.09-1.687s.935-1.687 2.09-1.687c1.156 0 2.092.755 2.092 1.687" fill="#FFF"/><path d="M338.525 171.638c-.88 0-1.597.533-1.597 1.19 0 .655.716 1.19 1.597 1.19.88 0 1.596-.535 1.596-1.19 0-.657-.715-1.19-1.595-1.19m0 3.373c-1.427 0-2.588-.978-2.588-2.183 0-1.204 1.16-2.184 2.588-2.184 1.426 0 2.587.98 2.587 2.184 0 1.205-1.16 2.184-2.587 2.184" fill="#67565E"/><path d="M337.524 176.053c-.556 1.06-1.574 1.623-2.272 1.253-.7-.368-.814-1.528-.257-2.59.556-1.06 1.574-1.622 2.273-1.254.698.37.813 1.53.256 2.59" fill="#FFF"/><path d="M336.796 173.848c-.41 0-.986.383-1.363 1.1-.22.422-.326.886-.288 1.274.02.184.087.512.337.645.25.132.56.003.72-.087.34-.187.663-.537.884-.96.22-.42.326-.885.287-1.273-.018-.184-.085-.512-.336-.644-.07-.037-.152-.055-.24-.055m-1.076 4.068c-.247 0-.485-.056-.7-.17-.482-.254-.796-.775-.86-1.425-.06-.585.082-1.237.396-1.835.695-1.325 1.988-1.967 2.942-1.462.484.255.798.775.862 1.426.058.584-.083 1.236-.397 1.835-.314.598-.77 1.084-1.283 1.367-.318.176-.646.264-.96.264" fill="#67565E"/><path d="M340.34 175.446c-1.128.195-2.148-.252-2.277-1-.13-.75.682-1.515 1.81-1.71 1.13-.197 2.15.25 2.28 1 .128.748-.683 1.514-1.812 1.71" fill="#FFF"/><path d="M340.4 173.187c-.145 0-.294.012-.442.038-.444.077-.854.267-1.122.52-.125.118-.33.356-.285.615.046.26.318.415.475.484.338.148.787.19 1.23.11.447-.076.855-.265 1.124-.518.124-.12.33-.356.284-.616-.045-.26-.316-.414-.474-.483-.226-.1-.5-.15-.79-.15m-.587 2.802c-.425 0-.833-.08-1.185-.235-.58-.254-.963-.7-1.053-1.225-.09-.525.122-1.075.582-1.51.412-.388.992-.664 1.633-.775.64-.11 1.28-.047 1.797.18.58.255.963.702 1.053 1.226.09.525-.122 1.075-.582 1.51-.412.39-.992.664-1.633.776-.205.035-.41.053-.612.053" fill="#67565E"/><path d="M339.38 177.366c-1.138-.44-1.827-1.408-1.537-2.162.29-.755 1.446-1.01 2.585-.57 1.14.438 1.827 1.406 1.538 2.16-.29.756-1.446 1.012-2.585.572" fill="#FFF"/><path d="M339.56 176.902c.942.364 1.78.14 1.944-.286.163-.426-.312-1.156-1.254-1.52-.942-.362-1.78-.14-1.945.287-.164.426.31 1.155 1.254 1.52zm.93 1.178c-.41 0-.848-.08-1.287-.25-1.416-.546-2.216-1.778-1.823-2.805.393-1.026 1.81-1.402 3.226-.857 1.415.547 2.216 1.78 1.823 2.806-.272.707-1.03 1.106-1.94 1.106z" fill="#67565E"/><path d="M344.22 175.953c.367.603 1.38.653 2.264.112.882-.543 1.3-1.472.93-2.076-.368-.605-1.382-.655-2.264-.113-.883.542-1.3 1.472-.93 2.076" fill="#FFF"/><path d="M346.388 174c-.31 0-.663.107-.98.302-.338.207-.608.497-.74.794-.063.137-.148.398-.027.597.194.316.892.373 1.585-.053.693-.425.96-1.075.767-1.39-.122-.2-.39-.242-.54-.25h-.064m-1.142 2.94c-.618 0-1.157-.248-1.45-.728-.263-.43-.274-.986-.033-1.524.217-.483.617-.92 1.128-1.235.512-.314 1.083-.475 1.61-.446.587.03 1.075.292 1.337.723.52.85.04 2.062-1.094 2.76-.494.302-1.02.45-1.497.45" fill="#67565E"/><path d="M345.184 176.117c2.565 1.39 4.817 3.963 5.106 6.966.292 3.033-1.766 5.577-4.33 6.914-2.95 1.54-6.59 1.712-9.712.6-2.664-.947-5.237-3.053-5.682-6.002-.468-3.102 1.526-6.04 3.944-7.773.33-.236.673-.453 1.027-.65" fill="#FFF"/><g transform="translate(330 175.477)"><mask id="d" fill="#fff"><use xlink:href="#c"/></mask><path d="M6.083 15.59C3.508 14.672.577 12.51.076 9.192-.454 5.677 1.87 2.623 4.222.94c.342-.245.704-.474 1.075-.68l.48.87c-.338.187-.668.396-.98.62C2.783 3.192.594 5.97 1.058 9.043c.434 2.884 3.052 4.788 5.357 5.608 3.057 1.088 6.54.874 9.317-.574 2.157-1.124 4.358-3.402 4.067-6.425-.296-3.07-2.7-5.41-4.85-6.576l.472-.875c2.374 1.288 5.03 3.896 5.364 7.356.338 3.515-2.153 6.13-4.596 7.403-1.744.91-3.743 1.372-5.76 1.372-1.47 0-2.95-.245-4.345-.743z" fill="#67565E" mask="url(#d)"/></g><path d="M348.56 182.953c.24 2.464-1.434 4.53-3.518 5.618" fill="#FFF"/><path d="M345.043 189.068c-.18 0-.352-.098-.44-.268-.126-.244-.032-.544.21-.67 1.726-.9 3.487-2.72 3.255-5.13-.026-.273.173-.516.446-.542.27-.032.514.174.54.447.28 2.902-1.77 5.058-3.783 6.107-.072.038-.15.056-.227.056" fill="#67565E"/><path d="M347.1 177.652c.646-.193 1.218-.545 1.218-1.192 0-.647-.58-1.17-1.225-1.17-.017 0-.11 0-.11.002v-.003s.055 0 .05.002c-.212.01-.326.045-.55.122-1.056.32-3.403.994-6.087.994-2.67 0-5.153-.674-6.288-.994-.24-.054-.4-.125-.638-.125-.645 0-1.165.523-1.165 1.17 0 .647.51 1.013 1.167 1.192 0 0 3.304.994 6.938.994s6.69-.994 6.69-.994" fill="#FFF"/><path d="M333.47 175.784c-.37 0-.672.303-.672.676 0 .123 0 .496.803.714.046.013 3.296.977 6.81.977 3.508 0 6.508-.96 6.538-.97l.012-.003c.574-.17.865-.532.865-.836 0-.36-.342-.795-.732-.795h-.008c-.01 0-.018.12-.027.122-.145.008-.21.085-.417.156-.846.256-3.372 1.05-6.244 1.05-2.54 0-4.882-.563-6.42-.998-.053-.01-.122-.022-.188-.04-.13-.035-.215-.05-.318-.05m6.94 3.356c-3.664 0-6.94-.973-7.08-1.015-1.32-.357-1.518-1.197-1.518-1.665 0-.918.743-1.665 1.658-1.665.234 0 .415.05.575.092.053.015.11.03.172.044.97.274 3.48.984 6.18.984 2.726 0 5.147-.733 5.943-.974.183-.063.327-.108.523-.13.042-.01.082-.012.13-.015.01 0 .022 0 .033.002.022-.002.044-.002.067-.002.932 0 1.718.762 1.718 1.665 0 .546-.27 1.277-1.564 1.664-.197.064-3.212 1.017-6.836 1.017" fill="#67565E"/><path d="M335.905 183.925c.452.95.05 2.085-.894 2.54-.945.452-2.077.05-2.53-.9-.45-.947-.05-2.084.896-2.537" fill="#FFF"/><path d="M334.195 187.148c-.27 0-.538-.046-.8-.14-.602-.212-1.085-.65-1.36-1.227-.276-.578-.31-1.23-.097-1.835.213-.604.648-1.09 1.224-1.366l.427.897c-.34.162-.593.446-.718.8-.125.354-.104.736.057 1.075.16.34.443.594.796.72.353.125.734.105 1.07-.057.34-.162.594-.446.718-.8.125-.354.105-.737-.056-1.076l.894-.43c.275.58.31 1.232.097 1.836-.214.605-.65 1.09-1.226 1.366-.327.157-.677.236-1.03.236" fill="#67565E"/><path d="M334.743 184.583c-.682 0-1.24-.56-1.24-1.244 0-.685.558-1.244 1.24-1.244.682 0 1.24.56 1.24 1.243s-.558 1.243-1.24 1.243" fill="#FFF"/><path d="M334.743 182.593c-.41 0-.743.335-.743.746 0 .41.333.745.743.745s.743-.334.743-.746-.333-.747-.743-.747m0 2.487c-.956 0-1.734-.78-1.734-1.74s.777-1.74 1.733-1.74c.956 0 1.734.78 1.734 1.74s-.778 1.74-1.734 1.74" fill="#67565E"/><path d="M363.022 174.874c-.124 0-.244.014-.36.04.022-.16.034-.32.034-.485 0-2.057-1.698-3.724-3.79-3.724-1.833 0-3.362 1.276-3.715 2.973-.183-.047-.375-.072-.574-.072-1.277 0-2.313.95-2.313 2.206 0 1.255 1.036 2.206 2.313 2.206h8.406c.92 0 1.668-.668 1.668-1.573 0-.905-.747-1.573-1.668-1.573" fill="#FFF"/><path d="M354.49 172.616c-1.764.066-3.178 1.433-3.178 3.196 0 1.805 1.482 3.198 3.304 3.198h8.406c1.467 0 2.66-1.11 2.66-2.565 0-1.237-.86-2.24-2.02-2.525-.24-2.38-2.282-4.208-4.757-4.208-1.95 0-3.685 1.18-4.415 2.904zm4.415-1.91c2.094 0 3.79 1.668 3.79 3.723 0 .163-.01.325-.032.482.115-.024.235-.038.36-.038.92 0 1.668.668 1.668 1.573 0 .905-.747 1.573-1.668 1.573h-8.406c-1.277 0-2.313-.95-2.313-2.206 0-1.255 1.036-2.242 2.313-2.242.2 0 .39.043.575.09.354-1.698 1.883-2.955 3.715-2.955M348.63 181.224c.205.205.205.537 0 .74-.203.206-.534.206-.737 0-.205-.203-.205-.535 0-.74.203-.205.534-.205.738 0" fill="#67565E"/></g></svg>